<?xml version="1.0" encoding="utf-8"?>
<!-- Generator: Adobe Illustrator 15.0.0, SVG Export Plug-In . SVG Version: 6.00 Build 0)  -->
<!DOCTYPE svg PUBLIC "-//W3C//DTD SVG 1.1//EN" "http://www.w3.org/Graphics/SVG/1.1/DTD/svg11.dtd">
<svg version="1.1" id="layer" xmlns="http://www.w3.org/2000/svg" xmlns:xlink="http://www.w3.org/1999/xlink" x="0px" y="0px"
	 width="794px" height="505px" viewBox="-88.5 141.5 794 505" enable-background="new -88.5 141.5 794 505" xml:space="preserve">
<g>
	<g>
		<path fill="#49207A" d="M457.404,400.506c11.64-24.405,17.646-52.001,16.051-80.912c-4.881-92.082-83.446-162.855-175.527-158.068
			c-92.082,4.881-162.95,83.446-158.069,175.527c0.563,10.794,2.159,21.401,4.787,31.914c2.534,10.231,6.101,20.181,10.513,29.661
			c4.318,9.387,9.574,18.304,15.582,26.752c5.913,8.354,12.671,16.145,20.087,23.185c7.416,7.134,15.394,13.517,23.936,19.148
			s17.646,10.513,27.127,14.549c9.574,4.036,19.618,7.228,29.755,9.387c10.606,2.253,21.213,3.285,32.008,3.661
			c14.268,0.563,28.91-1.408,42.333-6.289c6.195-2.253,12.015-5.163,17.553-8.729c13.986-9.199,24.029-23.748,27.409-40.362
			c1.22-6.007,1.689-12.108,1.407-18.021c-0.656-12.203-4.692-23.937-11.921-33.51c-7.228-9.668-17.553-17.177-29.661-21.308
			c-12.578-4.317-24.78-4.693-35.856-4.13c-12.578,0.657-24.029,2.534-33.228,3.004c-5.256,0.281-9.762,0.094-12.953-0.563
			c-2.535-0.469-5.069-1.877-6.665-3.567c-1.596-1.783-2.44-3.473-2.628-6.101c-0.188-1.971,0.657-4.318,2.44-6.289
			c1.784-1.971,4.224-3.191,6.946-3.379c3.003-0.188,7.228,1.596,9.011,2.159c4.224,1.22,8.542,2.159,13.047,2.816
			c5.069,0.751,10.231,1.22,15.582,1.22c38.484,0,70.398-21.776,75.843-50.03c0.938-4.13,1.22-8.448,0.751-12.766
			c-0.188-2.534-0.657-4.975-1.408-7.415c-1.972-7.603-5.819-14.643-11.264-20.838c18.961,1.689,32.195-2.628,40.08-10.513
			c14.831,19.806,24.123,44.117,25.531,70.774c1.127,21.964-3.191,42.896-11.921,61.481l-23.185-12.296l17.271,55.85l55.85-17.271
			L457.404,400.506z M306.657,323.067c-16.239,0-29.38-13.235-29.38-29.474s13.141-29.38,29.38-29.38
			c16.238,0,29.474,13.141,29.474,29.38S322.896,323.067,306.657,323.067 M369.641,236.805c-5.163,3.098-10.606,4.506-15.957,4.787
			c-7.885,0.375-12.672-0.375-14.268-0.938c-2.44-0.845-4.975-1.689-7.604-2.347c-0.469-0.094-0.938-0.281-1.313-0.375
			c-0.751-0.188-1.408-0.375-2.159-0.469c-0.751-0.188-1.502-0.282-2.253-0.469c-0.469-0.094-0.845-0.188-1.313-0.282
			c-2.441-0.469-4.976-0.845-7.604-1.126c-3.379-0.375-6.946-0.563-10.419-0.563c-42.333,0-76.688,26.282-76.688,58.666
			c0,5.444,0.939,10.607,2.722,15.582c1.314,4.036,3.191,7.885,5.538,11.452c-1.314,1.22-2.628,2.44-3.754,3.754
			c-7.979,8.729-12.766,20.557-12.109,33.416c0.563,11.733,5.632,22.246,12.86,29.849c7.228,7.603,16.52,12.484,26.563,14.456
			c7.603,1.502,14.925,1.502,21.964,1.22c12.015-0.657,23.373-2.534,33.229-3.003c8.729-0.47,16.051,0.094,21.589,2.064
			c5.632,1.972,9.387,4.975,12.108,8.448c2.628,3.566,4.318,7.885,4.506,13.141c0.094,2.534-0.094,5.351-0.657,8.354
			c-1.689,7.603-5.068,12.483-11.64,17.083c-6.57,4.506-17.177,7.979-31.82,8.729c-0.188,0-0.281,0-0.375,0l-1.877-0.094h-0.47
			c-69.179,0.845-127.375-53.222-131.036-122.963c-1.877-35.856,10.888-68.897,33.134-93.583s53.785-40.831,89.547-42.708
			c30.788-1.596,59.51,7.603,82.601,24.311C378.276,230.234,373.864,234.177,369.641,236.805"/>
		<path fill="#49207A" d="M182.474,566.459c-2.91-3.473-8.167-5.351-14.924-5.351c-7.604,0-15.394,3.004-21.777,8.354
			c-7.791,6.57-12.954,15.863-15.019,27.033c-3.849,19.805,5.444,34.261,22.059,34.261c7.979,0,15.675-3.286,21.12-8.918
			l-0.751,7.416h19.336l0.188-1.314c0.563-4.317,1.783-11.827,3.191-19.055l13.517-69.647h-21.589L182.474,566.459z M177.78,590.958
			l-1.596,8.447c-0.375,1.784-0.751,3.004-1.314,4.318c-2.065,5.162-6.852,8.636-12.015,8.636c-7.697,0-11.17-6.289-9.199-16.521
			c1.501-7.885,6.57-16.989,15.863-16.989c5.914,0,8.636,4.411,8.729,8.729C178.062,588.518,177.968,589.925,177.78,590.958"/>
		<path fill="#49207A" d="M576.237,565.332c-6.195-3.941-10.419-4.317-15.394-4.317c-5.82,0-13.423,3.285-18.867,10.419l1.221-8.917
			h-19.712l-0.188,1.314c-0.845,5.538-1.784,11.826-3.567,21.119l-8.636,44.398h22.528l6.57-33.886
			c0.281-1.502,0.751-3.004,1.22-4.224c2.347-5.726,7.604-9.104,14.174-9.104c2.065,0,3.661,0.281,5.069,0.469
			c0,0,0.563,0.094,1.407,0.281C564.786,575.376,572.389,567.961,576.237,565.332"/>
		<path fill="#49207A" d="M664.001,587.578c-7.603-2.909-8.729-4.224-8.354-6.194c0.657-3.474,5.162-4.882,7.509-4.882
			c4.036,0,8.729,0.282,12.953,2.816l1.127,0.657l6.758-14.549l-0.845-0.47c-3.379-1.877-9.855-3.849-18.021-3.849
			c-16.146,0-29.192,9.199-31.727,22.246c-1.314,6.383,0.188,15.206,15.206,20.557c7.228,2.628,8.26,4.036,7.885,6.289
			c-0.188,1.032-1.221,4.036-8.542,4.036c-4.693,0-11.827-0.657-15.675-2.816l-1.597-0.656l-6.945,13.61
			c5.913,3.191,14.455,6.383,21.025,6.383c18.022,0,30.788-8.448,33.416-22.059C680.146,598.373,675.734,591.896,664.001,587.578"/>
		<path fill="#49207A" d="M89.547,539.238L64.204,589.55H43.929l-8.729,17.271h20.369l-11.264,22.434H68.24l10.419-22.434H102.5
			l1.877,22.434h23.185l-10.231-90.017H89.547z M86.543,589.456l4.13-8.823l9.48-20.65l2.065,29.474H86.543z"/>
		<path fill="#49207A" d="M434.689,562.423l4.787-23.185l-23.842,5.162l-12.109,60.355c-1.877,9.293-1.313,15.863,1.878,19.993
			c2.909,3.849,8.354,6.008,14.83,6.008c5.632,0,10.701-0.657,13.799-1.784l1.126-0.375l3.473-18.116l-2.158,0.376
			c-1.878,0.375-3.755,0.469-5.632,0.469c-1.972,0-3.098-0.375-3.755-1.22c-1.032-1.221-0.938-3.849-0.094-8.072l4.224-21.59h13.986
			l3.473-17.928h-13.985V562.423z"/>
		<path fill="#49207A" d="M397.049,566.834c-3.098-3.848-7.979-5.726-14.455-5.726c-8.636,0-15.206,3.849-19.148,7.04l-0.751,0.657
			l1.032-6.195h-20.274l-0.281,1.689c-0.845,5.444-1.878,12.108-3.474,20.087l-8.729,44.962h22.34l7.51-38.297
			c1.313-6.853,5.162-10.513,11.17-10.513c2.253,0,3.849,0.656,4.881,1.877c1.502,1.877,1.877,5.257,0.938,9.949l-7.134,36.89
			h21.683l7.604-39.142C402.023,579.6,401.085,571.81,397.049,566.834"/>
		<polygon fill="#49207A" points="257.753,562.423 235.414,602.222 235.414,601.846 229.125,562.423 208.38,562.423 219.55,629.255 
			241.139,629.255 279.249,562.423 		"/>
		<path fill="#49207A" d="M-25.344,592.835h15.77l-2.91,14.925c-1.596,0.657-6.102,2.253-10.607,2.064
			c-10.043-0.375-16.52-2.815-19.899-7.415c-3.191-4.317-3.661-10.7-1.408-19.43c4.224-16.427,17.083-26.471,34.542-26.846
			c6.758-0.188,16.614,1.408,26.564,5.068c0,0,3.849-19.711,4.13-21.401c-4.13-2.252-14.455-4.975-26.47-4.975
			c-32.196,0-57.07,19.148-63.453,48.81c-3.098,13.893-0.845,26.095,6.195,34.355c7.04,8.541,18.21,12.859,33.229,12.859
			c0.75,0,1.501,0,2.252,0c19.618-0.563,33.51-8.542,34.073-8.823l0.375-0.188l9.105-46.557h-32.384L-25.344,592.835z"/>
		<path fill="#49207A" d="M450.458,624.937c3.098,3.849,7.979,5.82,14.455,5.82c8.636,0,15.206-3.849,19.148-7.04l0.751-0.657
			l-1.032,6.195h20.275l0.281-1.689c0.845-5.444,1.877-12.109,3.473-20.182l8.823-44.961h-22.34l-7.509,38.297
			c-1.314,6.853-5.257,10.513-11.17,10.513c-2.253,0-3.849-0.657-4.881-1.877c-1.502-1.878-1.878-5.257-0.938-10.044l7.228-36.982
			h-21.871l-7.603,39.235C445.39,612.077,446.422,619.962,450.458,624.937"/>
		<path fill="#49207A" d="M308.816,561.015c-16.146,0-35.669,10.982-40.362,35.105c-1.314,6.759-1.502,14.361,1.971,20.65
			c7.509,13.798,28.065,15.582,41.676,11.733c3.754-1.032,7.321-2.629,10.7-4.506c0,0-6.853-14.643-6.853-14.736
			c-13.328,7.321-28.91,4.317-28.159-6.195h41.676l0.376-1.032c0.657-1.784,1.596-4.787,2.253-7.979
			C335.192,578.004,330.687,561.015,308.816,561.015 M315.199,587.673h-23.842c2.065-5.069,7.134-12.297,14.831-12.297
			C315.011,575.376,315.949,583.73,315.199,587.673"/>
		<path fill="#49207A" d="M604.209,561.108c-16.238,0-35.95,11.076-40.644,35.293c-1.313,6.853-1.502,14.456,1.972,20.745
			c7.603,13.892,28.253,15.675,41.957,11.826c3.755-1.032,7.416-2.628,10.795-4.599c0,0-6.946-14.737-6.946-14.831
			c-13.423,7.321-29.098,4.411-28.347-6.289h42.145l0.376-1.032c0.657-1.784,1.596-4.881,2.253-8.072
			C630.773,578.192,626.268,561.108,604.209,561.108 M610.686,587.86h-24.029c2.065-5.069,7.134-12.391,14.925-12.391
			C610.404,575.47,611.343,583.918,610.686,587.86"/>
	</g>
</g>
</svg>
