<svg xmlns="http://www.w3.org/2000/svg" width="547.84" height="127.484" viewBox="0 0 547.84 127.484"><defs><style>.a{fill:#151e46;}.b{fill:#ec2e3c;}</style></defs><g transform="translate(-831.997 -510.996)"><path class="a" d="M906.088,511a3.83,3.83,0,0,0-2.772,1.218,4.165,4.165,0,0,0-1.222,3.058v60.834c0,10.407-2.632,18.317-7.824,23.51s-13.01,7.827-23.227,7.827c-20.992,0-31.194-10.252-31.194-31.336V515.279a4.5,4.5,0,0,0-1.024-3A3.587,3.587,0,0,0,836,511a3.811,3.811,0,0,0-2.944,1.179,4.427,4.427,0,0,0-1.048,3.1v59.836c0,13.125,3.332,23.21,9.9,29.974s16.379,10.2,29.139,10.2c12.664,0,22.441-3.432,29.066-10.2s9.974-16.849,9.974-29.976V515.279a4.319,4.319,0,0,0-1.121-3.029A3.771,3.771,0,0,0,906.088,511" transform="translate(0 0.002)"/><path class="a" d="M908,525.145a29.672,29.672,0,0,0-14.957,3.766,23.411,23.411,0,0,0-7.977,7.467v-6.669a4.657,4.657,0,0,0-.942-3.063,3.6,3.6,0,0,0-2.908-1.216,3.77,3.77,0,0,0-3.991,4.279v64.537a4.426,4.426,0,0,0,1.045,3.1,4.269,4.269,0,0,0,5.893,0,4.424,4.424,0,0,0,1.048-3.1v-37.61a23.8,23.8,0,0,1,6.339-17.322,22.648,22.648,0,0,1,16.877-6.466c6.219,0,10.758,1.589,13.494,4.714,2.766,3.171,4.171,8.342,4.171,15.373v41.314a4.406,4.406,0,0,0,1.045,3.093,4.074,4.074,0,0,0,6.938-3.093V552.36c0-18.058-8.773-27.215-26.075-27.215" transform="translate(52.221 16.344)"/><path class="a" d="M1031.826,562.089c0,9.4-2.056,16.694-6.115,21.663-4,4.908-9.857,7.393-17.388,7.393a20.912,20.912,0,0,1-17.1-7.393c-4.057-4.966-6.113-12.258-6.113-21.663,0-9.122,2.1-16.315,6.255-21.376a23.172,23.172,0,0,1,34.209,0c4.149,5.065,6.255,12.256,6.255,21.376M1025.1,529.9a30.6,30.6,0,0,0-44.463,12.957,49.24,49.24,0,0,0,0,38.611,30.606,30.606,0,0,0,55.66,0,49.24,49.24,0,0,0,0-38.611,30.36,30.36,0,0,0-11.2-12.957" transform="translate(167.191 16.162)"/><path class="a" d="M1066.418,577.967c0,9.312-2.082,16.629-6.189,21.74a23.178,23.178,0,0,1-34.2.14c-4.016-5.013-6.051-12.277-6.051-21.6,0-9.221,2.035-16.44,6.051-21.456a20.62,20.62,0,0,1,17.024-7.46,21.139,21.139,0,0,1,17.182,7.4c4.1,4.973,6.179,12.116,6.179,21.234m-6.585-31.905h0a30.618,30.618,0,0,0-16.632-4.57,28.778,28.778,0,0,0-15.416,4,24.241,24.241,0,0,0-7.8,7.788v-38a4.445,4.445,0,0,0-1.045-3.1,3.818,3.818,0,0,0-2.949-1.177,3.769,3.769,0,0,0-3.992,4.276v95.164a4.438,4.438,0,0,0,1.045,3.1,4.076,4.076,0,0,0,6.941-3.1V603.29a24,24,0,0,0,7.8,7.865,28.78,28.78,0,0,0,15.416,4,30.238,30.238,0,0,0,16.638-4.647,30.72,30.72,0,0,0,11.194-13.094,45.5,45.5,0,0,0,3.941-19.444,43.7,43.7,0,0,0-3.946-19.1,30.487,30.487,0,0,0-11.2-12.808" transform="translate(207.941)"/><path class="a" d="M1062.195,539.186a22.464,22.464,0,0,1,16.737-6.466A19.82,19.82,0,0,1,1094.563,539c3.555,4.033,5.516,9.868,5.844,17.356h-45.58a28.628,28.628,0,0,1,7.368-17.175m44.256,44.21a3.255,3.255,0,0,0-2.448-1.108c-.6,0-1.548.261-4.419,2.175a44.787,44.787,0,0,1-8.571,4.737,29.021,29.021,0,0,1-10.943,1.774c-8.03,0-14.323-2.431-18.707-7.223-4.246-4.643-6.525-11.308-6.768-19.835h47.985a5.423,5.423,0,0,0,4.313-1.481,6.431,6.431,0,0,0,1.246-4.363c0-10.083-2.623-18.166-7.8-24.027a27.22,27.22,0,0,0-21.406-8.887,32.188,32.188,0,0,0-17.2,4.638,31.017,31.017,0,0,0-11.624,13.017,43.3,43.3,0,0,0-4.093,19.244c0,11.327,3.087,20.374,9.172,26.9,6.1,6.544,14.571,9.863,25.165,9.863a42.046,42.046,0,0,0,21.761-6.281,16.339,16.339,0,0,0,4.029-3.287,5.462,5.462,0,0,0,1.282-3.4,3.56,3.56,0,0,0-.972-2.451Z" transform="translate(247.284 16.332)"/><path class="b" d="M920.158,511.409a8.472,8.472,0,1,0,8.473,8.474,8.472,8.472,0,0,0-8.473-8.474" transform="translate(92.08 0.477)"/><path class="a" d="M969.7,511a3.819,3.819,0,0,0-2.947,1.179,4.428,4.428,0,0,0-1.048,3.1v95.308a4.429,4.429,0,0,0,1.048,3.1,3.816,3.816,0,0,0,2.947,1.183,3.774,3.774,0,0,0,2.873-1.25,4.318,4.318,0,0,0,1.121-3.031V515.279a4.322,4.322,0,0,0-1.121-3.028A3.767,3.767,0,0,0,969.7,511" transform="translate(154.492 0.002)"/><path class="a" d="M925.961,526.463a3.816,3.816,0,0,0-2.944-1.179h-.043a1.932,1.932,0,0,0-.315-.013,4,4,0,0,0-1.974.664,5.15,5.15,0,0,0-.864.692l-8.551,8.728a4.412,4.412,0,0,0-1.451,2.929,4.265,4.265,0,0,0,4.166,4.167,4.437,4.437,0,0,0,2.938-1.457l2.1-2.142V594.1a4.426,4.426,0,0,0,1.045,3.1,4.269,4.269,0,0,0,5.895,0,4.444,4.444,0,0,0,1.046-3.1V529.418a4.237,4.237,0,0,0-1.045-2.955Z" transform="translate(89.92 16.492)"/><path class="a" d="M981.419,560.056c0,8.548-2.1,15.351-6.244,20.223a21.522,21.522,0,0,1-17.259,7.268,21.88,21.88,0,0,1-17.27-7.207c-4.231-4.824-6.376-11.646-6.376-20.283,0-8.54,2.145-15.315,6.376-20.141a21.886,21.886,0,0,1,17.27-7.208,21.626,21.626,0,0,1,17.261,7.2c4.141,4.828,6.242,11.607,6.242,20.149m6.837-33.759a3.87,3.87,0,0,0-2.845-1.149,3.769,3.769,0,0,0-3.992,4.279v7.234a24.186,24.186,0,0,0-7.878-7.805,29.464,29.464,0,0,0-15.625-3.992,31.68,31.68,0,0,0-16.688,4.418,30.092,30.092,0,0,0-11.346,12.444,40.353,40.353,0,0,0-4.024,18.33,40.779,40.779,0,0,0,4.022,18.4,30.031,30.031,0,0,0,11.349,12.517,31.7,31.7,0,0,0,16.688,4.419,29.676,29.676,0,0,0,15.84-4.067,23.293,23.293,0,0,0,7.362-7.242v11.835a17.191,17.191,0,0,1-2.953,9.657c-3.888,5.857-10.454,8.954-18.984,8.954-9.012,0-19.188-7.348-21.223-9.165a3.35,3.35,0,0,0-4.82.375l-.707.858a3.374,3.374,0,0,0,.412,4.682c3.076,2.621,14.062,11.191,26.327,11.191,11.93,0,20.4-4.026,25.9-12.308a25.354,25.354,0,0,0,4.339-14.244l-.008-66.632a4.059,4.059,0,0,0-1.147-2.987" transform="translate(108.444 16.012)"/><path class="a" d="M1088.556,559.1a1.76,1.76,0,0,0,.013-2.367,2.283,2.283,0,0,0-1.405-.351h-2.127v3.08h2.127a2.242,2.242,0,0,0,1.392-.362m2.208,4.509a.775.775,0,0,1,.183.451.591.591,0,0,1-.248.487.924.924,0,0,1-1.362-.261l-1.787-2.74a1.414,1.414,0,0,0-1.406-.772h-1.108v3.106a.815.815,0,0,1-.228.623.985.985,0,0,1-1.224,0,.832.832,0,0,1-.227-.623v-8a.853.853,0,0,1,.215-.61.787.787,0,0,1,.6-.228h3.192a3.658,3.658,0,0,1,2.436.737,2.585,2.585,0,0,1,.871,2.1,2.642,2.642,0,0,1-.645,1.845,2.941,2.941,0,0,1-1.8.894,1.6,1.6,0,0,1,.679.338,4.082,4.082,0,0,1,.612.681Zm-.429,2.375a6.666,6.666,0,0,0,2.526-2.559,7.512,7.512,0,0,0,0-7.191,6.7,6.7,0,0,0-2.526-2.548,7.4,7.4,0,0,0-7.18,0,6.7,6.7,0,0,0-2.524,2.548,7.5,7.5,0,0,0,0,7.191,6.667,6.667,0,0,0,2.525,2.559,7.4,7.4,0,0,0,7.18,0m.532-13.181a7.79,7.79,0,0,1,2.91,2.91,8.471,8.471,0,0,1,0,8.221,7.877,7.877,0,0,1-2.921,2.925,8.4,8.4,0,0,1-8.222,0,7.873,7.873,0,0,1-2.921-2.925,8.468,8.468,0,0,1,0-8.221,7.78,7.78,0,0,1,2.921-2.91,8.49,8.49,0,0,1,8.233,0" transform="translate(284.996 47.073)"/></g></svg>