<svg xmlns="http://www.w3.org/2000/svg" width="240.764" height="142.244" viewBox="0 0 240.764 142.244" style="-webkit-filter: drop-shadow( 5px 5px 6px rgba(0, 0, 0, .15)); filter: drop-shadow( 5px 5px 6px rgba(0, 0, 0, .15));"><defs><style>.a{fill:#00175b;}</style></defs><g transform="translate(-36.521 -91.804)"><path class="a" d="M314.434,466.039c1.686,23.879-2.917,18.536-8.9,19.526a3.441,3.441,0,0,1-2.994-2c-4.712-8.243-6.3-16.931-8.688-25.988-.28-1.921-2.808-3.655-2.147-5.651,2.054-1.275,3.954-.695,6.159.241-.243,8.508,2.28,17.24,5.856,24.963-.8-10.126.843-27.464,6.394-30.879,2.193-1.686,3.165-1.071,4.1,1.446,1.421,3.064,2.461,5.867,3.664,9.107,3.335,7.949,5.316,23.664,13.421,26.215-.2-4.958-2.183-11.733-1.869-18.471.308-6.622,1.819-27.362,7.489-27.294,6.732.686,3.883,11.419,4.187,15.375.1,8.065,1.09,15.634-.774,23.483-.934,3.887-1.426,5.909-4.557,8.121-4.3,4.579-10.521.568-13.89-3.227-3.757-4.314-4.492-10.286-7.475-14.949-.016-.049-.034-.1-.052-.146Z" transform="translate(-186.245 -252.229)"/><path class="a" d="M36.819,205.58c5.574,5.172,6.986,3.516,12.9,2.057C73.2,203.3,94.239,193.7,94.871,202.84l1.393,1.191c1.3,8.336-9.513,9.715-15.518,11.239-5.056,1.02-9.948,2.821-15.212,3.258-1.623,7.06-.793,14.67-.144,21.969.434,5.042.374,9.952,1.016,15.056a8.208,8.208,0,0,1,2.785.807c1.338,6.519-.067,13.6-.613,20.26-3.354,3.673-3.378-2.038-4.1-4.21-3.321-21.551-1.621-36.247-1.4-53.709-4.271-.208-8.541,1.4-13.042.739-8.072-.175-10.2,2-11.425-4.42-.058-.363.064-.881-.324-1.261-2.535-1.353-1.653-6.108-1.469-8.179" transform="translate(0 -78.287)"/><path class="a" d="M708.326,143.182c-8.083,4.465-18.11,7.566-22.342-2.99-1.381-3.446-3.266-6.166-4.107-9.8a63.2,63.2,0,0,1-1.927-12.87c8.687-22.96,9.681-21.625,6.843-23.328-2.049-1.2-4.2-3.39-6.58-1.884a40.272,40.272,0,0,0-5.6,7.976c-5.042,9.319-5.9,19.8-4.675,30.231-5.878,7.091-17.356,18.13-24.307,17.409-2.128-.794-8.09-8.852-7.342-9.816,4.2-5.544,8.59-20.752-2.91-18.35-8.206,2.241-8.209,12.763-6.74,19.6,1.2,5.556,5.105,11.045,10.149,13.271,4.2.814,8.637-.437,12.526-2.294,7.651-4.161,12.723-11.228,19.01-16.818.52,4.795,2.323,9.465,3.962,14.094,8.976,14.251,26.712,5.134,34.79-4.545-.339.05-.549.061-.749.113m-71.873-8.27c-1.393-3.166-2.249-8.171,1.515-10.234,1.559,3.254.383,7.172-1.515,10.234m42.72-23.262a48.517,48.517,0,0,1,4.211-13.455l.149.03c-.416,4.611-1.555,9.574-4.36,13.425" transform="translate(-431.791 0)"/><path class="a" d="M376.028,543.577l-.072-.13c.018.048.036.1.052.146l.02-.017" transform="translate(-247.838 -329.767)"/><path class="a" d="M398.635,231.707c-.335-4.466-1.006-8.787-1.733-13.283-.621-2.145.612-5.078-1.66-6.532-9.64,4.2-8.559,35.765-10.113,37.779-7.246-7.1-6.751-13.171-8.541-20.08-1.756.253-2.281.4-3.7,2.112-13.385,16.163-16.175,22.6-18.914,21.5-5.005-.348-3.382-11.324-4.035-14.364.4-2.011,1.8-3.769.985-5.98-4.844.528-9.422-2.911-14.413-2.775-18.7,1.079-19.084,19.586-11.6,27.4,3.664,4.056,10.49,2.631,14.1-.8,3.171-3.045,4.524-7.188,6.291-11.185l.178.019c1.2,9.408,6.638,15.17,14.37,8.215,5.668-5.5,8.363-13.442,14.2-18.931,1.528,5.572,6.545,20.875,11.068,19.658,2.632-.093,4.138-2.282,6-4.008,5.223-4.92,7.939-13.092,7.515-18.748M343.2,243.18c-.995,3.336-2.745,8.746-5.14,8.9-3.012.333-5.3-2.424-6.149-5.092-1.434-4.517.163-7.119,4.49-7.8,4.252-.669,7.3-.8,6.8,4" transform="translate(-207.247 -87.683)"/><path class="a" d="M211.815,314.667c-4.219,4.992-3.122-15.837-4.826-19.263-3.4-11.166-12.515,1.643-18.758-2.266.2-1.21,3.536-10.234.031-9.379a8.8,8.8,0,0,0-4.46,5.935c-1.138,8.449,4.746,2.056-6.806,21.612a3.917,3.917,0,0,0-.906,2.465l1.851.8c4.788-3.811,7.458-10.922,9.22-17.133,1.843.294,3.622-.132,5.174-.008,1.793,5.343-1.13,11.049,4.574,19.5,3.829,6.167,13.356,8.481,15.393-.859,0-.844.094-1.231-.488-1.413M186.429,291.76c-.776-.639-.249-1.916.083-3.045.523-1.612.814-1.235.835-.281a.915.915,0,0,1-.006.413,4.917,4.917,0,0,1-.912,2.914" transform="translate(-101.895 -140.115)"/><path class="a" d="M585,386.569c-2.1-1.669-4.535-2.751-6.383-4.986-4.648-5.711-10.339-12.852-10.911-16.4,1.921-8.221-.115-36.8-2.628-36.46-13.867-1.673-12.349,30.418-10.4,37.524.979,5.017,3.137,9.613,4.331,14.419-1.9,3.574-6.027,7.346-10.119,4.682-6.925-5.3-6.951-15.223-9.512-22.942-1.291-4.576.829-5.173,2.067-8.566a36.209,36.209,0,0,0,2.977-14.091c.786-7.056-.939-11.195-6.75-4.832-2.546,3.449-3.551,7.176-4.443,11.333-3.251,14.433-1.08,18.776-2.96,22.741-5.63,9.4-19.2,22.235-29.014,17.822-3.4-1.229-4.642-2.063-5.278-5.527,9.586-7.487,12.837-21.017,2.936-17.1-3.96,1.566-7.77,4.927-9.146,9.24-3.035,11.139,2.171,19.24,13.348,18.659,11.826-2.148,21.176-10.912,27.676-20.629.041,7.352,1.6,19.054,7.019,21.935,8.575,3.935,17.773-2.323,23-8.744,2.724,7.133,10,11.337,17.023,8.54,2.05-1.243,8.859-5.365,7.174-6.616m-89.76-8.676c-1.371-3.921,2.676-12.492,6.344-11.48.547,4.358-3.444,8.585-6.344,11.48m43.617-24.5h0c-.8-6.116-.464-14.278,3.551-18.666,2.183,4.858-1.965,16.462-3.551,18.666m26.437-1.416a57.259,57.259,0,0,1-.527,6.968c-2.487-6.34-6.567-21.577-1.217-26.033a131.428,131.428,0,0,1,1.744,19.065" transform="translate(-330.31 -172.939)"/></g></svg>